<?xml version="1.0" encoding="UTF-8"?>
<svg enable-background="new 0 0 492.002 492.002" version="1.1" viewBox="0 0 492 492" xml:space="preserve" xmlns="http://www.w3.org/2000/svg">
		<path d="m484.14 328.47-219.15-219.14c-5.064-5.064-11.816-7.844-19.172-7.844-7.208 0-13.964 2.78-19.02 7.844l-218.94 218.94c-5.064 5.068-7.852 11.824-7.852 19.032s2.784 13.968 7.852 19.032l16.124 16.124c5.064 5.064 11.824 7.86 19.032 7.86s13.964-2.796 19.032-7.86l183.85-183.85 184.06 184.06c5.064 5.06 11.82 7.852 19.032 7.852 7.208 0 13.96-2.792 19.028-7.852l16.128-16.132c10.488-10.492 10.488-27.568 0-38.06z"/>
</svg>